<svg id="katman_1" data-name="katman 1" xmlns="http://www.w3.org/2000/svg" viewBox="0 0 930.06 208.36"><title>theVerge</title><path d="M828.08,369.46l-.92,27.39c-32-2.19-41.12,6-41.12,32.87v3.47H758.63V371.1H786v17.72C794.27,374.39,805.42,367.82,828.08,369.46ZM175.63,480.85H203V374.94H175.63V480.85Zm135.79-111.2c-19.19,0-30.89,8.58-37.1,18.07V329.29H129.94v25.56H248.73v78.34h26.14c0-22.46,13-38.35,28.87-38.35,13.71,0,19.92,6.76,19.92,31.05v55h27.42V416C351.08,385,335.18,369.65,311.42,369.65Zm107.83,90.2c-16.63,0-27.42-10-29.24-26.66H364.24C366.79,462.41,386,483,419.06,483c25.59,0,40-11.5,47.52-28.85L443.37,444C439.9,454.37,433.5,459.85,419.25,459.85Zm-1.1-89.66A58,58,0,0,0,390,376.76l13.15,18.63a31.87,31.87,0,0,1,15.9-3.66c15.36,0,23.21,10,24.31,23.2h-26.5v18.26h52.27a58.68,58.68,0,0,0,.55-8C469.87,385.34,443.55,370.19,418.15,370.19Zm271.4,89.66c-16.63,0-27.42-10-29.24-26.66H634.54c2.55,29.22,21.74,49.85,54.82,49.85,25.59,0,40-11.5,47.52-28.85L713.67,444C710,454.37,703.62,459.85,689.55,459.85Zm-.92-89.66a58,58,0,0,0-28.14,6.57l13.16,18.63a31.82,31.82,0,0,1,15.9-3.66c15.35,0,23.21,10,24.3,23.2h-26.5v18.26h52.27a58.68,58.68,0,0,0,.55-8C740.35,385.34,714,370.19,688.63,370.19Zm321.29,89.66c-16.63,0-27.41-10-29.24-26.66H954.91c2.56,29.22,21.75,49.85,54.83,49.85,25.59,0,40-11.5,47.52-28.85L1034,444c-3.65,10.41-10,15.89-24.12,15.89Zm-1.46-89.66a58,58,0,0,0-28.14,6.57l13.15,18.63a31.87,31.87,0,0,1,15.9-3.66c15.36,0,23.21,10,24.31,23.2h-26.5v18.26h52.27a60.31,60.31,0,0,0,.55-8C1060.18,385.34,1033.86,370.19,1008.46,370.19Zm-524.7-53.87,49.31,116.87h30l-37.61-92.95H574V316.51l-90.28-.19ZM630,316.5l-56.48,143-8.4,21.36h28.69l67.8-164.34H630ZM882,478.3c11.7,0,21.38-3.29,28.15-8.95l-11-17.35A28.76,28.76,0,0,1,888,454c-15,0-23.57-8.95-26.5-20.82H834.66C838.31,458.58,856.59,478.3,882,478.3Zm33.81-91.86c-6.21-9.86-18.82-17-36.37-17A46.89,46.89,0,0,0,838,393.75l22.84,14.61c4.2-8.77,12.43-14.61,25-14.61,17.91,0,30,13.88,30,30.31a30.4,30.4,0,0,1-1.28,9.13h28.7v-61.9H915.8v15.15ZM889.3,503.13c-17.73,0-24.31-8.58-25.59-18.63H837.58c.55,19.18,13.34,40.18,52.27,40.18,26.32,0,43.5-13.15,50.62-32.87l-24.67-8.58c-3.47,12.78-13,19.9-26.5,19.9Z" transform="translate(-129.94 -316.32)" style="fill:#3c51a3"/></svg>